<?xml version="1.0" encoding="UTF-8"?>
<svg version="1.1" xmlns="http://www.w3.org/2000/svg" width="1667" height="1667">
<path d="M0 0 C1.42773438 1.45117188 1.42773438 1.45117188 3.09375 3.46875 C6.99970486 8.06208822 11.20049322 12.27740747 15.5 16.5 C20.29406503 21.20830358 24.92801937 25.9631393 29.31152344 31.05761719 C32.08060707 34.24310438 34.98149223 37.30288064 37.875 40.375 C41.78973102 44.54906652 45.68813814 48.73128578 49.5 53 C53.27344012 57.22400014 57.12830385 61.36637092 61 65.5 C65.58856337 70.39899472 70.12175344 75.3377837 74.59375 80.34375 C77.69220233 83.76411946 80.84517196 87.13168108 84 90.5 C88.63446686 95.44875123 93.21868419 100.43401836 97.73828125 105.48828125 C101.92859272 110.1417705 106.19346168 114.72687642 110.44726562 119.32226562 C112.9876648 122.06717492 115.52532337 124.81461219 118.0625 127.5625 C118.55983643 128.10108643 119.05717285 128.63967285 119.56958008 129.19458008 C123.34122461 133.28119476 127.10037135 137.3791198 130.85571289 141.48071289 C134.2280118 145.16227511 137.61179586 148.8330747 141 152.5 C145.29645031 157.14988581 149.58028402 161.81103067 153.85546875 166.48046875 C157.22787299 170.16209057 160.61174008 173.83296954 164 177.5 C170.13702617 184.14260258 176.24768628 190.80911659 182.35449219 197.47949219 C188.06260755 203.71362539 193.7830084 209.9360536 199.51928711 216.14428711 C203.30851177 220.24678208 207.0842269 224.36144667 210.85546875 228.48046875 C214.22787299 232.16209057 217.61174008 235.83296954 221 239.5 C227.13702617 246.14260258 233.24768628 252.80911659 239.35449219 259.47949219 C245.06260755 265.71362539 250.7830084 271.9360536 256.51928711 278.14428711 C260.30957598 282.24793428 264.08812 286.36215534 267.85766602 290.48486328 C270.2050144 293.05011076 272.56120538 295.60631346 274.93359375 298.1484375 C321.40969401 347.99193145 344.3892712 405.50755884 342 474 C338.92142814 522.2516207 319.35111638 570.15928467 286.23046875 605.59375 C284.40224308 607.5660565 282.64689404 609.56995263 280.89550781 611.609375 C276.9279466 616.14930812 272.71802285 620.40901187 268.44140625 624.65625 C267.65225327 625.44398804 266.86310028 626.23172607 266.05003357 627.04333496 C263.55654988 629.53127102 261.05959216 632.01568624 258.5625 634.5 C256.85979413 636.1976841 255.15731793 637.89559858 253.45507812 639.59375 C249.30603588 643.7318328 245.15414424 647.86703935 241 652 C241.92500301 653.26290106 242.85422962 654.52270908 243.78515625 655.78125 C244.30215088 656.48314453 244.81914551 657.18503906 245.35180664 657.90820312 C247.45508172 660.57756483 249.80650334 662.88812445 252.2421875 665.25 C253.93925401 666.93952399 255.50380759 668.68283095 257.0625 670.5 C260.5611193 674.55934609 264.21013287 678.46651873 267.875 682.375 C272.5507359 687.36351257 277.17710902 692.3869886 281.734375 697.484375 C284.9300606 701.03268798 288.17375265 704.53577726 291.41625977 708.04125977 C296.17111797 713.18187101 300.90375773 718.34253683 305.63232422 723.50732422 C307.02579152 725.02814876 308.42087751 726.54747324 309.81640625 728.06640625 C315.58211654 734.3440254 321.3119363 740.65184002 327 747 C325.60378902 750.15071802 323.96932757 752.27972386 321.536726 754.70936966 C320.81516441 755.43491334 320.09360283 756.16045702 319.35017574 756.90798688 C318.55446607 757.69787086 317.75875641 758.48775485 316.93893433 759.30157471 C315.67455337 760.56851894 315.67455337 760.56851894 314.38462937 761.861058 C312.04401543 764.20439866 309.69899231 766.54316337 307.35201287 768.88011837 C304.82216437 771.40133632 302.29809172 773.9283249 299.77331543 776.45462036 C295.39820116 780.83078373 291.01943762 785.20326803 286.63817978 789.57328033 C280.30361009 795.89160139 273.97456507 802.21543269 267.64685823 808.5406259 C257.38062181 818.80248421 247.10992628 829.05986752 236.83642578 839.31445312 C226.85621963 849.27630346 216.87811456 859.24025056 206.90283203 869.20703125 C206.28803639 869.82130145 205.67324075 870.43557164 205.03981493 871.06845608 C201.95560314 874.15005782 198.87143266 877.23170088 195.78728271 880.31336451 C170.19792269 905.88198844 144.6013254 931.44335704 119 957 C115.8264823 955.49250154 113.8125911 954.00026074 111.42578125 951.40234375 C110.76247803 950.68747803 110.0991748 949.9726123 109.41577148 949.23608398 C108.72169189 948.47755127 108.0276123 947.71901855 107.3125 946.9375 C105.87349433 945.38439815 104.43339885 943.83230529 102.9921875 942.28125 C102.3022168 941.53746094 101.61224609 940.79367187 100.90136719 940.02734375 C98.63298547 937.60866863 96.30249849 935.26158156 93.9375 932.9375 C90.84003461 929.88063809 87.96259805 926.71455736 85.12890625 923.4140625 C82.23405114 920.13145615 79.24249035 916.94350833 76.25 913.75 C70.12107089 907.2072386 64.04694791 900.61859439 58 894 C56.16746981 891.99926338 54.33374439 889.99962374 52.5 888 C49.76092366 885.01244615 47.02222783 882.024547 44.28515625 879.03515625 C39.02991799 873.29667769 33.7613559 867.57082308 28.48071289 861.85571289 C24.69148823 857.75321792 20.9157731 853.63855333 17.14453125 849.51953125 C13.77212701 845.83790943 10.38825992 842.16703046 7 838.5 C0.86297383 831.85739742 -5.24768628 825.19088341 -11.35449219 818.52050781 C-17.06260755 812.28637461 -22.7830084 806.0639464 -28.51928711 799.85571289 C-32.30851177 795.75321792 -36.0842269 791.63855333 -39.85546875 787.51953125 C-43.22787299 783.83790943 -46.61174008 780.16703046 -50 776.5 C-56.13702617 769.85739742 -62.24768628 763.19088341 -68.35449219 756.52050781 C-74.06260755 750.28637461 -79.7830084 744.0639464 -85.51928711 737.85571289 C-89.30851177 733.75321792 -93.0842269 729.63855333 -96.85546875 725.51953125 C-100.22787299 721.83790943 -103.61174008 718.16703046 -107 714.5 C-113.13702617 707.85739742 -119.24768628 701.19088341 -125.35449219 694.52050781 C-131.06260755 688.28637461 -136.7830084 682.0639464 -142.51928711 675.85571289 C-146.30817051 671.75358739 -150.08569323 667.64123331 -153.85327148 663.51953125 C-156.22413999 660.92802786 -158.60532168 658.34714182 -161.00390625 655.78125 C-197.81718041 616.3556866 -224.89407434 564.99156013 -225.203125 509.890625 C-225.21013931 509.04983398 -225.21715363 508.20904297 -225.22438049 507.34277344 C-225.24178516 504.64512716 -225.24823253 501.94770035 -225.25 499.25 C-225.25067474 498.32860229 -225.25134949 497.40720459 -225.25204468 496.45788574 C-225.23644921 483.07260415 -224.83865439 470.12598261 -222 457 C-221.75056641 455.76008301 -221.75056641 455.76008301 -221.49609375 454.49511719 C-215.28180412 423.89549473 -202.93881418 395.96991812 -185.1875 370.375 C-184.76307617 369.75560547 -184.33865234 369.13621094 -183.90136719 368.49804688 C-172.90107478 353.01381069 -159.07928365 339.81522847 -145.63775635 326.50042725 C-143.18634595 324.06985709 -140.74092793 321.63327223 -138.29492188 319.19726562 C-133.53530056 314.45943521 -128.76998914 309.7273909 -124 305 C-124.94526603 303.72111551 -125.8931162 302.4441408 -126.84204102 301.16796875 C-127.36959488 300.45664795 -127.89714874 299.74532715 -128.44068909 299.01245117 C-130.41906721 296.45915065 -132.60827124 294.23485158 -134.9375 292 C-138.43197795 288.57800011 -141.72033833 285.09952181 -144.8984375 281.38671875 C-147.82120613 278.06736627 -150.84964487 274.85074407 -153.875 271.625 C-158.55079638 266.63654568 -163.1771106 261.61300962 -167.734375 256.515625 C-170.9300606 252.96731202 -174.17375265 249.46422274 -177.41625977 245.95874023 C-181.71319908 241.31319801 -185.99297486 236.65225493 -190.265625 231.984375 C-192.14735019 229.92886855 -194.03323873 227.87728282 -195.921875 225.828125 C-200.70911515 220.62951899 -205.45062304 215.4100699 -210 210 C-208.60431394 206.85186939 -206.97102552 204.72060717 -204.54231262 202.29063034 C-203.82198443 201.56508666 -203.10165625 200.83954298 -202.35949993 200.09201312 C-201.5651545 199.30212914 -200.77080908 198.51224515 -199.95239258 197.69842529 C-199.11088307 196.85379581 -198.26937357 196.00916632 -197.40236378 195.138942 C-195.06562151 192.79559657 -192.72446532 190.45682529 -190.38133097 188.11988163 C-187.85556115 185.59863108 -185.33554596 183.07164006 -182.81478882 180.54537964 C-177.87627246 175.5979628 -172.93235545 170.65597697 -167.98649096 165.71590707 C-163.96877138 161.70270036 -159.95300342 157.68755054 -155.93862915 153.67099762 C-155.36775316 153.09981516 -154.79687717 152.52863271 -154.20870191 151.94014169 C-153.04908996 150.77989031 -151.8894825 149.61963443 -150.7298795 148.4593741 C-139.85284816 137.57663781 -128.96969143 126.70004375 -118.08443749 115.82553282 C-108.73608128 106.48611707 -99.39298808 97.14146313 -90.05371094 87.79296875 C-79.21556339 76.94412974 -68.3741937 66.09852763 -57.52762508 55.25810742 C-56.3722028 54.10332226 -55.21678471 52.94853291 -54.06137085 51.79373932 C-53.49283553 51.22551255 -52.92430022 50.65728579 -52.33853656 50.07184003 C-48.32407181 46.05910525 -44.31193895 42.0440479 -40.3006897 38.02809906 C-35.4166786 33.13849182 -30.52914691 28.25243731 -25.63699937 23.37097022 C-23.13908075 20.8783247 -20.64281923 18.38407575 -18.15082932 15.88550186 C-15.45514068 13.18279861 -12.75181482 10.48782142 -10.04760742 7.79364014 C-9.253262 6.99483327 -8.45891657 6.1960264 -7.64050007 5.37301326 C-6.92017188 4.65790056 -6.19984369 3.94278787 -5.45768738 3.2060051 C-4.5217841 2.27058888 -4.5217841 2.27058888 -3.56697369 1.31627536 C-2 0 -2 0 0 0 Z " fill="#F8EAC6" transform="translate(775,178)"/>
<path d="M0 0 C2.9489364 1.4153983 5.02260872 2.77499224 7.3125 5.125 C7.84488281 5.66382813 8.37726563 6.20265625 8.92578125 6.7578125 C10.7464809 8.7259511 12.51118505 10.72642012 14.26953125 12.75 C17.87375237 16.8869941 21.6046655 20.88969243 25.375 24.875 C30.23745426 30.03730461 35.04962167 35.23347146 39.7734375 40.5234375 C43.94904126 45.16788098 48.20472003 49.73903883 52.44726562 54.32226562 C61.11048614 63.68290264 69.74199919 73.07219089 78.35449219 82.47949219 C83.55864692 88.16322346 88.77047632 93.83959185 94 99.5 C100.13698573 106.14264017 106.24768607 112.80911637 112.35449219 119.47949219 C118.06260755 125.71362539 123.7830084 131.9360536 129.51928711 138.14428711 C133.30851177 142.24678208 137.0842269 146.36144667 140.85546875 150.48046875 C144.22787299 154.16209057 147.61174008 157.83296954 151 161.5 C157.13702617 168.14260258 163.24768628 174.80911659 169.35449219 181.47949219 C174.55864692 187.16322346 179.77047632 192.83959185 185 198.5 C191.13698573 205.14264017 197.24768607 211.80911637 203.35449219 218.47949219 C208.55864692 224.16322346 213.77047632 229.83959185 219 235.5 C225.13698573 242.14264017 231.24768607 248.80911637 237.35449219 255.47949219 C242.05506295 260.6132329 246.75835155 265.74430453 251.48242188 270.85644531 C252.49668744 271.95490667 253.50970333 273.0545232 254.52148438 274.15527344 C256.90583102 276.74728898 259.30456687 279.31669755 261.74609375 281.85546875 C291.63379456 313.30479108 311.95609263 357.92243633 312.203125 401.64453125 C312.20882507 402.45379562 312.21452515 403.26306 312.22039795 404.09684753 C312.22979274 405.80535602 312.23635979 407.51388218 312.24023438 409.22241211 C312.24983132 411.76776203 312.28086164 414.31226449 312.3125 416.85742188 C312.41927386 433.4707708 310.09998828 449.16410418 305 465 C304.56348356 466.42177725 304.12730317 467.8436577 303.69140625 469.265625 C293.63799621 501.39403832 275.06664544 527.17862646 251.37109375 550.7265625 C250.49598648 551.60025482 249.62087921 552.47394714 248.71925354 553.37411499 C245.96103631 556.1267957 243.19933863 558.87595325 240.4375 561.625 C238.55091287 563.5059904 236.66513033 565.38778499 234.77929688 567.26953125 C230.1888565 571.84902698 225.59556394 576.42564613 221 581 C217.05268629 579.18553844 214.84164486 576.88414342 211.9375 573.625 C210.95587757 572.53241873 209.97410254 571.43997455 208.9921875 570.34765625 C208.49428711 569.78965332 207.99638672 569.23165039 207.48339844 568.65673828 C205.1984928 566.10483412 202.87998995 563.58486949 200.5625 561.0625 C199.64712092 560.06381537 198.7317565 559.06511731 197.81640625 558.06640625 C194.88431363 554.87140095 191.94269646 551.6852368 189 548.5 C181.05228912 539.89553832 173.1298764 531.27100112 165.3046875 522.5546875 C162.75842085 519.73221566 160.19479208 516.9260282 157.625 514.125 C156.93929932 513.37742432 156.93929932 513.37742432 156.23974609 512.61474609 C153.84029817 510.00044729 151.43734518 507.38943191 149.03125 504.78125 C148.54446777 504.25257324 148.05768555 503.72389648 147.55615234 503.17919922 C146.20774671 501.71486106 144.85782874 500.25191592 143.5078125 498.7890625 C142.68023438 497.86867188 141.85265625 496.94828125 141 496 C140.12601563 495.12988281 139.25203125 494.25976562 138.3515625 493.36328125 C134.85074724 489.113959 134.2484656 483.83962522 133.25 478.5625 C133.04246094 477.55123047 132.83492187 476.53996094 132.62109375 475.49804688 C130.83430333 466.66208007 129.84776047 458.36791844 129.82299805 449.3581543 C129.81642685 448.31005585 129.80985565 447.2619574 129.80308533 446.18209839 C129.7834483 442.729471 129.77171278 439.27688686 129.76171875 435.82421875 C129.75764322 434.64057047 129.7535677 433.45692219 129.74936867 432.23740578 C129.7285515 425.97541099 129.71422949 419.71343786 129.70483398 413.45141602 C129.69376278 406.99883349 129.65934165 400.54659514 129.61966228 394.09413433 C129.59347514 389.11743036 129.58514038 384.14080832 129.58155251 379.16404152 C129.57669414 376.78590374 129.56510169 374.40776943 129.54651451 372.02969933 C129.52207319 368.6962002 129.52309732 365.36359127 129.5300293 362.0300293 C129.51081421 360.57160866 129.51081421 360.57160866 129.49121094 359.08372498 C129.55231039 350.98173356 131.14787267 343.85212733 137 338 C137.33 334.04 137.66 330.08 138 326 C122.16 326 106.32 326 90 326 C89.6591805 337.52043682 89.6591805 337.52043682 95 342 C97.93491089 348.33789384 98.42864068 354.88106791 98.34057617 361.76416016 C98.34101425 362.68245605 98.34145233 363.60075195 98.34190369 364.546875 C98.33983448 367.54449667 98.3165926 370.54154006 98.29296875 373.5390625 C98.28736614 375.63227025 98.28309919 377.72548196 98.28010559 379.81869507 C98.26870921 385.29973412 98.23928724 390.78053067 98.20599365 396.26147461 C98.17518003 401.8656893 98.16157621 407.46994357 98.14648438 413.07421875 C98.11441223 424.04958509 98.06327944 435.0247723 98 446 C96.87711689 445.04823074 95.75574423 444.09467928 94.63500977 443.14038086 C94.01038345 442.60956406 93.38575714 442.07874725 92.74220276 441.53184509 C90.63103716 439.67558661 88.77977595 437.68471111 86.9375 435.5625 C83.03156339 431.13577184 79.03889137 426.80481331 75 422.5 C70.36632749 417.55303398 65.78349685 412.56894833 61.265625 407.515625 C58.0699394 403.96731202 54.82624735 400.46422274 51.58374023 396.95874023 C46.826075 391.81509423 42.09040202 386.6515806 37.35888672 381.48388672 C35.07357504 378.98835593 32.7867042 376.49425473 30.5 374 C29.58332596 373.00000675 28.6666593 372.00000676 27.75 371 C27.29625 370.505 26.8425 370.01 26.375 369.5 C-76.75 257 -76.75 257 -78.12475586 255.50024414 C-79.04220685 254.49940332 -79.95968736 253.49858955 -80.87719727 252.49780273 C-83.15710551 250.01088739 -85.43651293 247.52351685 -87.71484375 245.03515625 C-92.46607559 239.84702953 -97.22608074 234.66726439 -102 229.5 C-107.22812079 223.84111032 -112.43844089 218.16617168 -117.64111328 212.48388672 C-119.92642496 209.98835593 -122.2132958 207.49425473 -124.5 205 C-125.41667404 204.00000675 -126.3333407 203.00000676 -127.25 202 C-127.930625 201.2575 -127.930625 201.2575 -128.625 200.5 C-130 199 -131.375 197.5 -132.75 196 C-133.20383057 195.50491943 -133.65766113 195.00983887 -134.12524414 194.49975586 C-135.04112649 193.50059669 -135.9569794 192.50141053 -136.87280273 191.50219727 C-139.17622769 188.98910945 -141.48017602 186.47650522 -143.78515625 183.96484375 C-149.87561897 177.32691172 -155.9460013 170.67121766 -162 164 C-160.72807839 161.2163815 -159.41812466 159.16864403 -157.25512505 157.00902939 C-156.69379966 156.4437219 -156.13247427 155.87841442 -155.55413902 155.2959764 C-154.93741297 154.68507604 -154.32068693 154.07417568 -153.68527222 153.44476318 C-153.03019499 152.78797711 -152.37511776 152.13119103 -151.70018971 151.45450234 C-149.50000415 149.25101785 -147.29273769 147.05476602 -145.08544922 144.85839844 C-143.50839008 143.28190333 -141.93177098 141.70496792 -140.3555603 140.12762451 C-136.0710266 135.84251596 -131.78034547 131.56361061 -127.48855734 127.28576946 C-123.00598687 122.81568429 -118.52906304 118.33995128 -114.05154419 113.86480713 C-106.53415869 106.35293562 -99.01329099 98.84456838 -91.48974609 91.33886719 C-83.74065799 83.60813862 -75.99367437 75.87531114 -68.24951172 68.13964844 C-67.77211787 67.66278004 -67.29472403 67.18591164 -66.8028637 66.69459268 C-64.40791918 64.30225825 -62.01301597 61.90988245 -59.61813331 59.5174861 C-39.75182381 39.6719082 -19.87820469 19.83366259 0 0 Z " fill="#F8EAC6" transform="translate(772,225)"/>
<path d="M0 0 C1.42773438 1.45117188 1.42773438 1.45117188 3.09375 3.46875 C6.99970486 8.06208822 11.20049322 12.27740747 15.5 16.5 C20.29406503 21.20830358 24.92801937 25.9631393 29.31152344 31.05761719 C32.08060707 34.24310438 34.98149223 37.30288064 37.875 40.375 C41.78973102 44.54906652 45.68813814 48.73128578 49.5 53 C53.27344012 57.22400014 57.12830385 61.36637092 61 65.5 C65.58856337 70.39899472 70.12175344 75.3377837 74.59375 80.34375 C77.69220233 83.76411946 80.84517196 87.13168108 84 90.5 C88.63446686 95.44875123 93.21868419 100.43401836 97.73828125 105.48828125 C101.92859272 110.1417705 106.19346168 114.72687642 110.44726562 119.32226562 C112.9876648 122.06717492 115.52532337 124.81461219 118.0625 127.5625 C118.55983643 128.10108643 119.05717285 128.63967285 119.56958008 129.19458008 C123.34122461 133.28119476 127.10037135 137.3791198 130.85571289 141.48071289 C134.2280118 145.16227511 137.61179586 148.8330747 141 152.5 C145.29645031 157.14988581 149.58028402 161.81103067 153.85546875 166.48046875 C157.22787299 170.16209057 160.61174008 173.83296954 164 177.5 C170.13702617 184.14260258 176.24768628 190.80911659 182.35449219 197.47949219 C188.06260755 203.71362539 193.7830084 209.9360536 199.51928711 216.14428711 C203.30851177 220.24678208 207.0842269 224.36144667 210.85546875 228.48046875 C214.22787299 232.16209057 217.61174008 235.83296954 221 239.5 C227.13702617 246.14260258 233.24768628 252.80911659 239.35449219 259.47949219 C245.06260755 265.71362539 250.7830084 271.9360536 256.51928711 278.14428711 C260.30957598 282.24793428 264.08812 286.36215534 267.85766602 290.48486328 C270.2050144 293.05011076 272.56120538 295.60631346 274.93359375 298.1484375 C321.40969401 347.99193145 344.3892712 405.50755884 342 474 C338.92142814 522.2516207 319.35111638 570.15928467 286.23046875 605.59375 C284.40224308 607.5660565 282.64689404 609.56995263 280.89550781 611.609375 C276.9279466 616.14930812 272.71802285 620.40901187 268.44140625 624.65625 C267.65225327 625.44398804 266.86310028 626.23172607 266.05003357 627.04333496 C263.55654988 629.53127102 261.05959216 632.01568624 258.5625 634.5 C256.85979413 636.1976841 255.15731793 637.89559858 253.45507812 639.59375 C249.30603588 643.7318328 245.15414424 647.86703935 241 652 C241.92500301 653.26290106 242.85422962 654.52270908 243.78515625 655.78125 C244.30215088 656.48314453 244.81914551 657.18503906 245.35180664 657.90820312 C247.45508172 660.57756483 249.80650334 662.88812445 252.2421875 665.25 C253.93925401 666.93952399 255.50380759 668.68283095 257.0625 670.5 C260.5611193 674.55934609 264.21013287 678.46651873 267.875 682.375 C272.5507359 687.36351257 277.17710902 692.3869886 281.734375 697.484375 C284.9300606 701.03268798 288.17375265 704.53577726 291.41625977 708.04125977 C296.17111797 713.18187101 300.90375773 718.34253683 305.63232422 723.50732422 C307.02579152 725.02814876 308.42087751 726.54747324 309.81640625 728.06640625 C315.58211654 734.3440254 321.3119363 740.65184002 327 747 C325.60378902 750.15071802 323.96932757 752.27972386 321.536726 754.70936966 C320.81516441 755.43491334 320.09360283 756.16045702 319.35017574 756.90798688 C318.55446607 757.69787086 317.75875641 758.48775485 316.93893433 759.30157471 C315.67455337 760.56851894 315.67455337 760.56851894 314.38462937 761.861058 C312.04401543 764.20439866 309.69899231 766.54316337 307.35201287 768.88011837 C304.82216437 771.40133632 302.29809172 773.9283249 299.77331543 776.45462036 C295.39820116 780.83078373 291.01943762 785.20326803 286.63817978 789.57328033 C280.30361009 795.89160139 273.97456507 802.21543269 267.64685823 808.5406259 C257.38062181 818.80248421 247.10992628 829.05986752 236.83642578 839.31445312 C226.85621963 849.27630346 216.87811456 859.24025056 206.90283203 869.20703125 C206.28803639 869.82130145 205.67324075 870.43557164 205.03981493 871.06845608 C201.95560314 874.15005782 198.87143266 877.23170088 195.78728271 880.31336451 C170.19792269 905.88198844 144.6013254 931.44335704 119 957 C115.8264823 955.49250154 113.8125911 954.00026074 111.42578125 951.40234375 C110.76247803 950.68747803 110.0991748 949.9726123 109.41577148 949.23608398 C108.72169189 948.47755127 108.0276123 947.71901855 107.3125 946.9375 C105.87349433 945.38439815 104.43339885 943.83230529 102.9921875 942.28125 C102.3022168 941.53746094 101.61224609 940.79367187 100.90136719 940.02734375 C98.63298547 937.60866863 96.30249849 935.26158156 93.9375 932.9375 C90.84003461 929.88063809 87.96259805 926.71455736 85.12890625 923.4140625 C82.23405114 920.13145615 79.24249035 916.94350833 76.25 913.75 C70.12107089 907.2072386 64.04694791 900.61859439 58 894 C56.16746981 891.99926338 54.33374439 889.99962374 52.5 888 C49.76092366 885.01244615 47.02222783 882.024547 44.28515625 879.03515625 C39.02991799 873.29667769 33.7613559 867.57082308 28.48071289 861.85571289 C24.69148823 857.75321792 20.9157731 853.63855333 17.14453125 849.51953125 C13.77212701 845.83790943 10.38825992 842.16703046 7 838.5 C0.86297383 831.85739742 -5.24768628 825.19088341 -11.35449219 818.52050781 C-17.06260755 812.28637461 -22.7830084 806.0639464 -28.51928711 799.85571289 C-32.30851177 795.75321792 -36.0842269 791.63855333 -39.85546875 787.51953125 C-43.22787299 783.83790943 -46.61174008 780.16703046 -50 776.5 C-56.13702617 769.85739742 -62.24768628 763.19088341 -68.35449219 756.52050781 C-74.06260755 750.28637461 -79.7830084 744.0639464 -85.51928711 737.85571289 C-89.30851177 733.75321792 -93.0842269 729.63855333 -96.85546875 725.51953125 C-100.22787299 721.83790943 -103.61174008 718.16703046 -107 714.5 C-113.13702617 707.85739742 -119.24768628 701.19088341 -125.35449219 694.52050781 C-131.06260755 688.28637461 -136.7830084 682.0639464 -142.51928711 675.85571289 C-146.30817051 671.75358739 -150.08569323 667.64123331 -153.85327148 663.51953125 C-156.22413999 660.92802786 -158.60532168 658.34714182 -161.00390625 655.78125 C-197.81718041 616.3556866 -224.89407434 564.99156013 -225.203125 509.890625 C-225.21013931 509.04983398 -225.21715363 508.20904297 -225.22438049 507.34277344 C-225.24178516 504.64512716 -225.24823253 501.94770035 -225.25 499.25 C-225.25067474 498.32860229 -225.25134949 497.40720459 -225.25204468 496.45788574 C-225.23644921 483.07260415 -224.83865439 470.12598261 -222 457 C-221.75056641 455.76008301 -221.75056641 455.76008301 -221.49609375 454.49511719 C-215.28180412 423.89549473 -202.93881418 395.96991812 -185.1875 370.375 C-184.76307617 369.75560547 -184.33865234 369.13621094 -183.90136719 368.49804688 C-172.90107478 353.01381069 -159.07928365 339.81522847 -145.63775635 326.50042725 C-143.18634595 324.06985709 -140.74092793 321.63327223 -138.29492188 319.19726562 C-133.53530056 314.45943521 -128.76998914 309.7273909 -124 305 C-124.94526603 303.72111551 -125.8931162 302.4441408 -126.84204102 301.16796875 C-127.36959488 300.45664795 -127.89714874 299.74532715 -128.44068909 299.01245117 C-130.41906721 296.45915065 -132.60827124 294.23485158 -134.9375 292 C-138.43197795 288.57800011 -141.72033833 285.09952181 -144.8984375 281.38671875 C-147.82120613 278.06736627 -150.84964487 274.85074407 -153.875 271.625 C-158.55079638 266.63654568 -163.1771106 261.61300962 -167.734375 256.515625 C-170.9300606 252.96731202 -174.17375265 249.46422274 -177.41625977 245.95874023 C-181.71319908 241.31319801 -185.99297486 236.65225493 -190.265625 231.984375 C-192.14735019 229.92886855 -194.03323873 227.87728282 -195.921875 225.828125 C-200.70911515 220.62951899 -205.45062304 215.4100699 -210 210 C-208.60431394 206.85186939 -206.97102552 204.72060717 -204.54231262 202.29063034 C-203.82198443 201.56508666 -203.10165625 200.83954298 -202.35949993 200.09201312 C-201.5651545 199.30212914 -200.77080908 198.51224515 -199.95239258 197.69842529 C-199.11088307 196.85379581 -198.26937357 196.00916632 -197.40236378 195.138942 C-195.06562151 192.79559657 -192.72446532 190.45682529 -190.38133097 188.11988163 C-187.85556115 185.59863108 -185.33554596 183.07164006 -182.81478882 180.54537964 C-177.87627246 175.5979628 -172.93235545 170.65597697 -167.98649096 165.71590707 C-163.96877138 161.70270036 -159.95300342 157.68755054 -155.93862915 153.67099762 C-155.36775316 153.09981516 -154.79687717 152.52863271 -154.20870191 151.94014169 C-153.04908996 150.77989031 -151.8894825 149.61963443 -150.7298795 148.4593741 C-139.85284816 137.57663781 -128.96969143 126.70004375 -118.08443749 115.82553282 C-108.73608128 106.48611707 -99.39298808 97.14146313 -90.05371094 87.79296875 C-79.21556339 76.94412974 -68.3741937 66.09852763 -57.52762508 55.25810742 C-56.3722028 54.10332226 -55.21678471 52.94853291 -54.06137085 51.79373932 C-53.49283553 51.22551255 -52.92430022 50.65728579 -52.33853656 50.07184003 C-48.32407181 46.05910525 -44.31193895 42.0440479 -40.3006897 38.02809906 C-35.4166786 33.13849182 -30.52914691 28.25243731 -25.63699937 23.37097022 C-23.13908075 20.8783247 -20.64281923 18.38407575 -18.15082932 15.88550186 C-15.45514068 13.18279861 -12.75181482 10.48782142 -10.04760742 7.79364014 C-9.253262 6.99483327 -8.45891657 6.1960264 -7.64050007 5.37301326 C-6.92017188 4.65790056 -6.19984369 3.94278787 -5.45768738 3.2060051 C-4.5217841 2.27058888 -4.5217841 2.27058888 -3.56697369 1.31627536 C-2 0 -2 0 0 0 Z M-3 47 C-56.46 100.46 -109.92 153.92 -165 209 C-163.35294418 212.29411163 -162.28057649 213.98925261 -159.83984375 216.5390625 C-159.2156958 217.19672607 -158.59154785 217.85438965 -157.94848633 218.53198242 C-157.28486084 219.22267822 -156.62123535 219.91337402 -155.9375 220.625 C-154.56436336 222.07091142 -153.19196427 223.51752364 -151.8203125 224.96484375 C-151.15805664 225.66206543 -150.49580078 226.35928711 -149.81347656 227.07763672 C-146.89362469 230.1728055 -144.06405022 233.34570735 -141.23046875 236.51953125 C-138.55441088 239.49553256 -135.84263264 242.4369955 -133.125 245.375 C-127.85345936 251.07400799 -122.60135603 256.79036268 -117.35888672 262.51611328 C-115.07357506 265.01164405 -112.78672251 267.50576208 -110.5 270 C-107.76096752 272.9875941 -105.02222787 275.97545297 -102.28515625 278.96484375 C-97.53392441 284.15297047 -92.77391926 289.33273561 -88 294.5 C-82.77187921 300.15888968 -77.56155911 305.83382832 -72.35888672 311.51611328 C-70.07357504 314.01164407 -67.7867042 316.50574527 -65.5 319 C-64.58332596 319.99999325 -63.6666593 320.99999324 -62.75 322 C-62.069375 322.7425 -62.069375 322.7425 -61.375 323.5 C-16 373 29.375 422.5 76.12744141 473.50292969 C77.0356157 474.49348906 77.94413907 475.48372851 78.85302734 476.47363281 C81.27772479 479.1154283 83.69447415 481.764017 86.1015625 484.421875 C86.60751953 484.97875 87.11347656 485.535625 87.63476562 486.109375 C88.61223978 487.18549334 89.58757826 488.26355628 90.56054688 489.34375 C91.68667856 490.58133047 92.84059531 491.7935346 94 493 C94.33 493 94.66 493 95 493 C95.0696684 480.91666654 95.1228967 468.83338127 95.15543652 456.74988747 C95.17105804 451.13836165 95.19223205 445.52697379 95.22631836 439.91552734 C95.25903718 434.49496489 95.27687942 429.0745347 95.28463173 423.65388107 C95.2901528 421.59113866 95.30093388 419.52840306 95.31719017 417.46571732 C95.33913093 414.56504206 95.34195999 411.66490571 95.34057617 408.76416016 C95.351362 407.92114349 95.36214783 407.07812683 95.3732605 406.20956421 C95.32991232 397.75142878 94.08937764 391.08937764 88 385 C87.67 381.04 87.34 377.08 87 373 C102.84 373 118.68 373 135 373 C133.93010753 385.83870968 133.93010753 385.83870968 130 390 C127.0702085 396.34110075 126.56337478 401.65281832 126.59594727 408.58081055 C126.58908401 409.6113858 126.58222076 410.64196106 126.57514954 411.70376587 C126.55691002 415.09822542 126.56071949 418.49222084 126.56640625 421.88671875 C126.561839 424.26878508 126.55653182 426.65085009 126.55052185 429.03291321 C126.54159315 434.02858829 126.54400645 439.02410355 126.55395508 444.01977539 C126.56536991 450.36480668 126.54534713 456.7092752 126.51603794 463.0542326 C126.49751053 467.97993887 126.49800228 472.90551488 126.50367546 477.83124733 C126.50382706 480.16678461 126.49791872 482.50233166 126.48538399 484.83783531 C126.42079364 498.86019603 127.30623693 512.02828021 130.47660637 525.71332741 C130.83909401 527.29701222 131.17840131 528.88611414 131.49905586 530.47879601 C131.74328443 531.67666205 131.74328443 531.67666205 131.9924469 532.89872742 C132.13348123 533.61290675 132.27451555 534.32708609 132.41982365 535.06290722 C133.41718168 538.39288618 135.52249494 540.39056522 137.9375 542.8125 C138.93664996 543.83940412 139.93533488 544.86676087 140.93359375 545.89453125 C141.69905518 546.66531006 141.69905518 546.66531006 142.47998047 547.45166016 C144.88871422 549.90527234 147.18973828 552.45409075 149.5 555 C150.41349386 555.99791666 151.32755818 556.99531143 152.2421875 557.9921875 C152.69561523 558.48686523 153.14904297 558.98154297 153.61621094 559.49121094 C155.01678849 561.01830502 156.41842766 562.5444185 157.8203125 564.0703125 C162.80864585 569.50205325 167.76858299 574.95753194 172.6953125 580.4453125 C176.63524532 584.81262786 180.61775768 589.14086509 184.59716797 593.47216797 C185.97356272 594.97120702 187.34841739 596.47164076 188.72265625 597.97265625 C189.62758923 598.96095118 190.53253716 599.94923242 191.4375 600.9375 C191.88561035 601.42686035 192.3337207 601.9162207 192.79541016 602.42041016 C195.22787779 605.07440454 197.6665388 607.72243713 200.11328125 610.36328125 C205.49344714 616.17115908 210.84375101 621.99042811 216 628 C219.45951357 626.50919539 221.72643917 624.53712372 224.39453125 621.89599609 C225.25643066 621.04685638 226.11833008 620.19771667 227.00634766 619.32284546 C227.93237793 618.39904083 228.8584082 617.47523621 229.8125 616.5234375 C230.78680523 615.55557257 231.76125445 614.58785259 232.73583984 613.62026978 C234.78369589 611.58439338 236.82737069 609.54442024 238.86865234 607.50195312 C240.93506863 605.43537585 243.00815542 603.3759196 245.08837891 601.32324219 C281.42666598 565.45924067 308.86085 520.11766927 309.32203674 467.47616577 C309.32972048 464.9631321 309.32371562 462.45051756 309.3125 459.9375 C309.31034485 459.07116943 309.3081897 458.20483887 309.30596924 457.31225586 C309.25534037 444.64274685 308.86446544 432.38933197 306 420 C305.70996094 418.66606201 305.70996094 418.66606201 305.4140625 417.30517578 C299.60508494 391.01686299 288.35005341 366.39109761 272 345 C271.34386719 344.13117188 270.68773437 343.26234375 270.01171875 342.3671875 C264.43946175 335.19132031 258.21094728 328.61747538 252 322 C250.24062045 320.11796543 248.48243906 318.23481678 246.72436523 316.3515625 C245.53281853 315.07519603 244.34092373 313.79915444 243.14868164 312.5234375 C237.72631539 306.71798966 232.35817581 300.86470942 227 295 C225.16746981 292.99926338 223.33374439 290.99962374 221.5 289 C218.76092366 286.01244615 216.02222783 283.024547 213.28515625 280.03515625 C208.53392441 274.84702953 203.77391926 269.66726439 199 264.5 C192.86301427 257.85735983 186.75231393 251.19088363 180.64550781 244.52050781 C175.44135308 238.83677654 170.22952368 233.16040815 165 227.5 C158.86301427 220.85735983 152.75231393 214.19088363 146.64550781 207.52050781 C140.93739245 201.28637461 135.2169916 195.0639464 129.48071289 188.85571289 C125.69148823 184.75321792 121.9157731 180.63855333 118.14453125 176.51953125 C114.77212701 172.83790943 111.38825992 169.16703046 108 165.5 C101.86297383 158.85739742 95.75231372 152.19088341 89.64550781 145.52050781 C84.44135308 139.83677654 79.22952368 134.16040815 74 128.5 C67.86301427 121.85735983 61.75231393 115.19088363 55.64550781 108.52050781 C50.44135308 102.83677654 45.22952368 97.16040815 40 91.5 C33.86301427 84.85735983 27.75231393 78.19088363 21.64550781 71.52050781 C20.97406738 70.78719238 20.97406738 70.78719238 20.2890625 70.0390625 C19.83926025 69.54776855 19.38945801 69.05647461 18.92602539 68.55029297 C18.02233146 67.56423911 17.11788034 66.57887862 16.21264648 65.59423828 C13.7100258 62.87183817 11.22092961 60.13832925 8.74609375 57.390625 C7.66410521 56.19787792 6.58207491 55.00516872 5.5 53.8125 C4.9954126 53.24732666 4.4908252 52.68215332 3.97094727 52.09985352 C1.67236369 49.57675168 0.29432552 48.09810851 -3 47 Z M-103.89468384 330.52046204 C-104.60700165 331.23340927 -105.31931946 331.94635651 -106.05322266 332.6809082 C-107.2706163 333.88895866 -107.2706163 333.88895866 -108.51260376 335.12141418 C-109.38758514 336.00560532 -110.26256653 336.88979645 -111.1640625 337.80078125 C-112.07070648 338.70692673 -112.97735046 339.6130722 -113.91146851 340.54667664 C-115.83783424 342.47313226 -117.75891773 344.40466164 -119.67626953 346.34008789 C-122.10506246 348.79129705 -124.54447437 351.23157538 -126.98789406 353.66819477 C-129.34355552 356.01965185 -131.69102243 358.37921332 -134.0390625 360.73828125 C-134.9018985 361.60020584 -135.7647345 362.46213043 -136.65371704 363.35017395 C-172.66360503 399.77335888 -192.9964422 447.32861488 -193.375 498.625 C-193.03716241 549.05170593 -172.852625 595.08961222 -138.52050781 631.38671875 C-135.97099152 634.0917932 -133.45576773 636.82836911 -130.9375 639.5625 C-129.93620485 640.64714182 -128.93490282 641.73177728 -127.93359375 642.81640625 C-124.66236594 646.36374165 -121.40282776 649.92172693 -118.14428711 653.48071289 C-114.7719882 657.16227511 -111.38820414 660.8330747 -108 664.5 C-103.70354969 669.14988581 -99.41971598 673.81103067 -95.14453125 678.48046875 C-91.77212701 682.16209057 -88.38825992 685.83296954 -85 689.5 C-78.86297383 696.14260258 -72.75231372 702.80911659 -66.64550781 709.47949219 C-61.44135308 715.16322346 -56.22952368 720.83959185 -51 726.5 C-44.86301427 733.14264017 -38.75231393 739.80911637 -32.64550781 746.47949219 C-27.44135308 752.16322346 -22.22952368 757.83959185 -17 763.5 C-10.86301427 770.14264017 -4.75231393 776.80911637 1.35449219 783.47949219 C7.06260755 789.71362539 12.7830084 795.9360536 18.51928711 802.14428711 C22.30851177 806.24678208 26.0842269 810.36144667 29.85546875 814.48046875 C33.22787299 818.16209057 36.61174008 821.83296954 40 825.5 C46.13702617 832.14260258 52.24768628 838.80911659 58.35449219 845.47949219 C63.55864692 851.16322346 68.77047632 856.83959185 74 862.5 C80.13698573 869.14264017 86.24768607 875.80911637 92.35449219 882.47949219 C93.71528571 883.96568641 95.07638212 885.45160283 96.4375 886.9375 C96.88295166 887.42420166 97.32840332 887.91090332 97.78735352 888.41235352 C100.2665642 891.11859977 102.75496332 893.81586211 105.25390625 896.50390625 C105.79539307 897.0872876 106.33687988 897.67066895 106.89477539 898.27172852 C107.93790902 899.3948225 108.98258407 900.51648747 110.02905273 901.63647461 C112.51977411 904.31979713 114.87639597 907.01547542 117 910 C119.77829697 908.72931751 121.83184749 907.41951954 123.99376392 905.26629829 C124.55968811 904.7074397 125.12561229 904.14858111 125.7086857 903.5727874 C126.32026818 902.95878984 126.93185066 902.34479227 127.56196594 901.71218872 C128.21945759 901.05993376 128.87694923 900.40767879 129.55436486 899.73565853 C131.7601985 897.54484857 133.95880323 895.34692583 136.1574707 893.14892578 C137.73562487 891.57839122 139.31418188 890.00826136 140.89311218 888.43850708 C145.18280867 884.17077553 149.46589537 879.89646992 153.7471621 875.6202836 C156.41961936 872.951466 159.09337101 870.28395221 161.76756859 867.61687851 C169.16981342 860.23408628 176.57058719 852.84982862 183.96456623 845.4587574 C184.43749511 844.98601609 184.91042399 844.51327478 185.39768405 844.02620798 C186.35641778 843.0678405 187.31515023 842.10947175 188.27388141 841.15110172 C188.74980182 840.67536413 189.22572222 840.19962654 189.71606445 839.70947266 C190.19256312 839.23315454 190.66906179 838.75683642 191.15999981 838.26608442 C198.89133235 830.53829797 206.6343488 822.82233434 214.38256011 815.11147489 C222.33493197 807.19713383 230.27774164 799.2732974 238.21149701 791.34028614 C242.66731398 786.88526444 247.12707093 782.43436212 251.59664345 777.99313736 C255.7961272 773.81969529 259.98363603 769.63460829 264.16205025 765.44007492 C265.70131223 763.89898765 267.24489488 762.36220266 268.79297256 760.82997131 C270.89799114 758.74520056 272.98718907 756.64578723 275.07295227 754.54177856 C276.00705641 753.62747438 276.00705641 753.62747438 276.96003133 752.69469941 C278.83206423 750.84479973 278.83206423 750.84479973 281 748 C280.55111962 744.31381739 279.05087412 742.75023759 276.375 740.25 C273.75389789 737.72580483 271.23819829 735.20461229 268.875 732.4375 C265.3998616 728.39645604 261.77002059 724.51202763 258.125 720.625 C253.44924394 715.63650685 248.82289045 710.6130108 244.265625 705.515625 C241.0699394 701.96731202 237.82624735 698.46422274 234.58374023 694.95874023 C231.19297714 691.29289068 227.8104369 687.61975871 224.4375 683.9375 C223.98705322 683.44580322 223.53660645 682.95410645 223.07250977 682.44750977 C221.26321506 680.47211162 219.45437012 678.4963019 217.64550781 676.52050781 C212.44135308 670.83677654 207.22952368 665.16040815 202 659.5 C196.77187921 653.84111032 191.56155911 648.16617168 186.35888672 642.48388672 C184.07357504 639.98835593 181.7867042 637.49425473 179.5 635 C178.58332596 634.00000675 177.6666593 633.00000676 176.75 632 C176.29625 631.505 175.8425 631.01 175.375 630.5 C50.25 494 50.25 494 48.87524414 492.50024414 C47.95779315 491.49940332 47.04031264 490.49858955 46.12280273 489.49780273 C43.84289449 487.01088739 41.56348707 484.52351685 39.28515625 482.03515625 C38.37764888 481.04422989 37.4700967 480.05334455 36.5625 479.0625 C36.11277832 478.57152832 35.66305664 478.08055664 35.19970703 477.57470703 C32.27929934 474.38890197 29.34930939 471.21213724 26.41455078 468.03955078 C19.10801015 460.13977374 11.88025608 452.17733106 4.8125 444.0625 C2.72788836 441.69035571 0.61571356 439.34443935 -1.5 437 C-4.76390848 433.38323655 -7.98790949 429.73610392 -11.1875 426.0625 C-14.03755297 422.81933628 -16.93818975 419.62203782 -19.83203125 416.41796875 C-21.64047557 414.4009831 -23.4198734 412.36508404 -25.1875 410.3125 C-29.2949855 405.58937264 -33.60437379 401.0544454 -37.88549805 396.48950195 C-40.80802016 393.36770812 -43.71182437 390.24338798 -46.5 387 C-50.44162792 382.41810765 -54.60736126 378.04466585 -58.73950195 373.63549805 C-62.81212396 369.28540665 -66.828536 364.89137841 -70.80078125 360.44921875 C-73.30735659 357.65770411 -75.83821202 354.88901601 -78.375 352.125 C-78.83165039 351.62709961 -79.28830078 351.12919922 -79.75878906 350.61621094 C-82.16971762 347.9890253 -84.58483066 345.36577943 -87.00390625 342.74609375 C-87.4952002 342.21290527 -87.98649414 341.6797168 -88.49267578 341.13037109 C-89.85721384 339.64962364 -91.22347531 338.17046487 -92.58984375 336.69140625 C-95 334 -95 334 -97.12890625 331.15234375 C-98.05509766 330.08693359 -98.05509766 330.08693359 -99 329 C-102.01492732 328.68706111 -102.01492732 328.68706111 -103.89468384 330.52046204 Z " fill="#783D19" transform="translate(775,178)"/>
<path d="M0 0 C1.70615479 0.00845947 1.70615479 0.00845947 3.44677734 0.01708984 C28.05752511 0.3703207 51.60550098 8.66439994 69.27734375 26.18359375 C85.50708063 42.95311081 91.79241704 61.87291097 91.66992188 84.93432617 C91.19024742 105.46961995 83.77142438 121.9048122 69.8125 136.9375 C68.966875 137.72125 68.12125 138.505 67.25 139.3125 C66.651875 139.90417969 66.05375 140.49585938 65.4375 141.10546875 C52.23745286 153.65036649 34.19696346 160.87095197 16.25 163.3125 C15.45851563 163.42207031 14.66703125 163.53164062 13.8515625 163.64453125 C-11.4357188 166.63592888 -39.17195563 161.43018792 -59.75 145.75 C-61.09302952 144.61554704 -62.42693853 143.47017878 -63.75 142.3125 C-64.41 141.79429687 -65.07 141.27609375 -65.75 140.7421875 C-80.64307736 128.69973823 -88.985358 110.38916963 -91.4375 91.6875 C-93.29495951 70.01713903 -88.47174194 49.70120708 -74.62109375 32.69921875 C-72.40212421 30.1560867 -70.11409028 27.7208918 -67.75 25.3125 C-67.08613281 24.62414063 -66.42226562 23.93578125 -65.73828125 23.2265625 C-56.70086722 14.51621678 -45.29731362 8.85726857 -33.5 4.875 C-32.80463135 4.64022949 -32.1092627 4.40545898 -31.39282227 4.16357422 C-21.0935417 0.92203012 -10.75562476 -0.05632902 0 0 Z M-55.75 39.3125 C-56.31460937 39.85390625 -56.87921875 40.3953125 -57.4609375 40.953125 C-68.50138534 52.51930845 -72.28740441 69.00150498 -72.16992188 84.50756836 C-71.67639996 99.46666048 -66.20570697 114.43804542 -55.80859375 125.4140625 C-37.89621587 141.93287778 -17.37099363 147.41051809 6.4375 146.6875 C25.09502166 145.71448714 42.22612386 138.94157484 55.25 125.3125 C56.19746094 124.39404297 56.19746094 124.39404297 57.1640625 123.45703125 C68.01685732 112.24566392 72.15825673 97.06566993 72.625 81.8125 C72.0901428 64.3333667 66.44873984 49.33128473 54.078125 36.9375 C50.06615334 33.213681 45.95244601 30.10692479 41.25 27.3125 C40.48429687 26.85359375 39.71859375 26.3946875 38.9296875 25.921875 C9.01031088 9.53040134 -31.86062674 15.50754149 -55.75 39.3125 Z " fill="#783D19" transform="translate(1489.75,1314.6875)"/>
<path d="M0 0 C14.85 0 29.7 0 45 0 C45.66 3.96 46.32 7.92 47 12 C51.16204696 22.65484021 59.39249248 31.40480451 66.77392578 40.00488281 C70.10709148 43.90031096 73.29718852 47.8855216 76.4375 51.9375 C80.71333743 57.44673731 85.17131849 62.76499432 89.73461914 68.03759766 C93.169706 72.01201379 96.48823653 76.05805603 99.74609375 80.1796875 C102.77090949 83.96463891 105.85392439 87.70036253 108.9375 91.4375 C109.85764893 92.55282104 109.85764893 92.55282104 110.79638672 93.69067383 C111.99427748 95.1425995 113.19219333 96.59450447 114.39013672 98.04638672 C116.43318889 100.52568661 118.467712 103.0118717 120.5 105.5 C124.49074929 110.38262129 128.49361601 115.25520597 132.5 120.125 C133.12455078 120.88490234 133.74910156 121.64480469 134.39257812 122.42773438 C134.97458984 123.13478516 135.55660156 123.84183594 136.15625 124.5703125 C136.68025391 125.20727051 137.20425781 125.84422852 137.74414062 126.50048828 C138.92082785 127.95018932 138.92082785 127.95018932 140 129 C140.09371369 114.58705635 140.16384447 100.17416041 140.20724869 85.76097393 C140.22781659 79.06766972 140.25633102 72.37458348 140.30175781 65.68139648 C140.34535562 59.21692206 140.3691668 52.75264459 140.37950897 46.28803444 C140.38687528 43.82698277 140.40125978 41.36594136 140.42292023 38.90497398 C140.45213853 35.44642577 140.45594819 31.98868192 140.45410156 28.5300293 C140.47567322 27.01842728 140.47567322 27.01842728 140.49768066 25.47628784 C140.44671698 16.60174677 138.3649678 9.1163099 133 2 C133 1.34 133 0.68 133 0 C144.55 0 156.1 0 168 0 C167.20463789 3.18144845 166.61085165 4.85726673 165.0625 7.5625 C159.3628512 18.98018411 160.70662761 32.46303738 160.734375 44.87890625 C160.73302476 47.01724797 160.73108124 49.15558938 160.72857666 51.29393005 C160.72563785 55.76637711 160.72987994 60.23874396 160.73925781 64.71118164 C160.75060292 70.39376312 160.74411628 76.07615459 160.73211288 81.75872898 C160.72481898 86.17473226 160.72721723 90.59069197 160.73236847 95.0066967 C160.73368678 97.09909018 160.73212237 99.19148783 160.72740936 101.28387642 C159.90910827 130.21750095 159.90910827 130.21750095 169 157 C169 157.99 169 158.98 169 160 C155.14 160 141.28 160 127 160 C126.34 156.04 125.68 152.08 125 148 C121.068634 138.30339464 113.58038526 130.03547776 107 122 C106.2575 121.08605469 105.515 120.17210937 104.75 119.23046875 C103.31376339 117.46949482 101.87354854 115.71175917 100.4296875 113.95703125 C97.52311821 110.41961493 94.63569654 106.86694797 91.75 103.3125 C91.19844238 102.6333252 90.64688477 101.95415039 90.07861328 101.25439453 C88.94883335 99.86316712 87.81911376 98.47189069 86.68945312 97.08056641 C83.96041309 93.71974572 81.23015975 90.3599111 78.5 87 C77.41666054 85.66667165 76.33332721 84.33333831 75.25 83 C74.71375 82.34 74.1775 81.68 73.625 81 C55.75 59 55.75 59 54.12353516 56.99804688 C53.04528088 55.67106447 51.96683184 54.34424031 50.88818359 53.01757812 C48.10048386 49.58837869 45.31670521 46.15610235 42.5390625 42.71875 C29.56202611 26.43853451 29.56202611 26.43853451 13.74609375 13.03515625 C12.97894043 12.5050293 12.21178711 11.97490234 11.42138672 11.42871094 C9.86439143 10.36192261 8.29968309 9.30629451 6.72705078 8.26269531 C6.00372559 7.76995117 5.28040039 7.27720703 4.53515625 6.76953125 C3.879104 6.33229736 3.22305176 5.89506348 2.54711914 5.44458008 C1 4 1 4 0 0 Z " fill="#783D19" transform="translate(86,1317)"/>
<path d="M0 0 C13.53 0 27.06 0 41 0 C41 3.3 41 6.6 41 10 C41.74361411 12.74969029 42.4848293 15.10048623 43.56640625 17.69140625 C43.8361879 18.37167374 44.10596954 19.05194122 44.38392639 19.75282288 C47.01396954 26.27725595 49.96028209 32.65460595 53.00466919 38.99420166 C54.66056463 42.44380778 56.29375237 45.90417649 57.9296875 49.36328125 C58.26728592 50.07587097 58.60488434 50.78846069 58.95271301 51.52264404 C62.25264257 58.50204306 65.44963641 65.52663983 68.6295166 72.56137085 C86.46387484 114.65302635 86.46387484 114.65302635 109.57421875 153.79296875 C111 156 111 156 112 160 C100.45 160 88.9 160 77 160 C77.33 155.71 77.66 151.42 78 147 C76.38594995 136.67886365 70.67341048 126.90372006 66.12451172 117.62402344 C61.66847727 108.51031202 57.52194949 99.28475309 53.4375 90 C46.57774601 74.42502113 39.48173535 58.96746006 32.29467773 43.54101562 C31.90491257 42.70414719 31.5151474 41.86727875 31.11357117 41.00505066 C30.39047509 39.45343732 29.66652522 37.90222141 28.94148254 36.35151672 C26.56659114 31.26088545 24.26599913 26.13999399 22 21 C17.66070437 29.38663338 13.84208904 37.89532098 10.25 46.625 C9.1123807 49.36713937 7.97055238 52.107517 6.828125 54.84765625 C6.52660522 55.57152023 6.22508545 56.29538422 5.91442871 57.04118347 C2.00572844 66.40836921 -1.99879154 75.73455712 -6 85.0625 C-6.77059473 86.86156989 -7.54118394 88.66064215 -8.31176758 90.4597168 C-11.81945674 98.64146346 -15.34631609 106.81374533 -18.93359375 114.9609375 C-19.5358835 116.33321851 -20.13809931 117.70553197 -20.74023438 119.07788086 C-21.82807541 121.55667807 -22.9255162 124.03037187 -24.02929688 126.50219727 C-29.21393048 138.29965498 -31 146.61324728 -31 160 C-41.89 160 -52.78 160 -64 160 C-63.04161621 156.16646484 -62.2923884 154.78529205 -60 151.75 C-45.51006923 131.49366821 -36.42775362 107.6044994 -26.8125 84.8125 C-24.78502424 80.01978392 -22.75458409 75.22833013 -20.72265625 70.4375 C-20.22841156 69.27164871 -19.73416687 68.10579742 -19.22494507 66.90461731 C-16.36229647 60.1651705 -13.46250819 53.44441749 -10.49609375 46.75 C-10.16668289 46.00554123 -9.83727203 45.26108246 -9.49787903 44.49406433 C-8.03434362 41.19177293 -6.5614643 37.89412969 -5.07348633 34.6027832 C0.88956666 21.31404582 0.88956666 21.31404582 2 7 C1.06716704 4.79932579 1.06716704 4.79932579 0 3 C0 2.01 0 1.02 0 0 Z " fill="#783D19" transform="translate(447,1317)"/>
<path d="M0 0 C2.33570269 0.09303402 4.64490894 0.24596216 6.97412109 0.42919922 C18.78091373 1.23377452 30.58534596 1.14452165 42.4140625 1.1328125 C44.84247853 1.13348795 47.2708945 1.13445998 49.6993103 1.13571167 C54.76048432 1.13717672 59.82164056 1.13507236 64.8828125 1.13037109 C71.3322319 1.12466842 77.78160972 1.12796387 84.2310276 1.13394356 C89.23621935 1.1375763 94.24140142 1.13639827 99.24659348 1.13381577 C101.62336609 1.13315431 104.00013962 1.13394722 106.37691116 1.13629532 C118.62516422 1.1457461 130.79298772 1.09017545 143 0 C143.33 0.66 143.66 1.32 144 2 C142.35402084 5.72240055 140.30991038 9.23186281 138.3137207 12.77709961 C137.31902916 14.55085705 136.34751564 16.33599896 135.37695312 18.12304688 C134.44206055 19.79657227 134.44206055 19.79657227 133.48828125 21.50390625 C132.91634033 22.53330322 132.34439941 23.5627002 131.75512695 24.62329102 C130 27 130 27 127.78198242 27.84350586 C127.19392822 27.89514893 126.60587402 27.94679199 126 28 C124.89322917 26.50260417 123.78645833 25.00520833 122.6796875 23.5078125 C117.84837435 19.17086628 111.10791815 19.66340366 105.0078125 19.5859375 C103.58890213 19.55688828 103.58890213 19.55688828 102.1413269 19.5272522 C99.13597478 19.46772951 96.13058379 19.42118054 93.125 19.375 C91.08071296 19.33679508 89.03644158 19.29774189 86.9921875 19.2578125 C81.9949197 19.16205046 76.99757658 19.07791886 72 19 C72.06082685 33.58754404 72.13852915 48.17491929 72.23571491 62.76226807 C72.28046804 69.53713412 72.31992834 76.31195001 72.34643555 83.08691406 C72.37207367 89.63579386 72.41311366 96.18447627 72.46318626 102.73321533 C72.47975883 105.22077612 72.4913325 107.70837583 72.49761391 110.19598389 C72.19078713 133.86342845 72.19078713 133.86342845 79.1328125 156.203125 C80 158 80 158 81 162 C68.79 162 56.58 162 44 162 C44.78891179 158.84435283 45.40946143 157.15840301 46.875 154.4375 C53.68594544 139.00947162 52.46868193 120.33113343 52.51171875 103.86328125 C52.52860469 101.40178048 52.54676004 98.94028813 52.56611633 96.47880554 C52.61319763 90.06589389 52.64327606 83.65301635 52.66955566 77.23999023 C52.69957475 70.66969057 52.74603057 64.0995081 52.79101562 57.52929688 C52.87657117 44.68626217 52.94468653 31.84319881 53 19 C47.7198765 19.04474354 42.44088284 19.11517221 37.16137695 19.20751953 C35.37240688 19.23541958 33.58332063 19.25678484 31.79418945 19.27099609 C17.00906344 19.39534535 4.22958222 20.8763788 -9 28 C-9.99 28 -10.98 28 -12 28 C-11.38361646 24.27657443 -10.3201056 21.16152797 -8.75 17.734375 C-8.08484375 16.27644531 -8.08484375 16.27644531 -7.40625 14.7890625 C-6.71015625 13.28472656 -6.71015625 13.28472656 -6 11.75 C-5.30390625 10.22246094 -5.30390625 10.22246094 -4.59375 8.6640625 C-1.14501232 1.14501232 -1.14501232 1.14501232 0 0 Z " fill="#783D19" transform="translate(669,1315)"/>
<path d="M0 0 C10.56 0 21.12 0 32 0 C32 4.95 32 9.9 32 15 C32.70490116 18.24422603 33.359584 20.85533743 34.5234375 23.87890625 C34.79167328 24.62612442 35.05990906 25.37334259 35.33627319 26.14320374 C38.04819381 33.51588972 41.25659203 40.66824719 44.60385132 47.77069092 C46.02642846 50.78930429 47.42716914 53.81791358 48.82981873 56.8458252 C49.54175102 58.38205698 50.25476477 59.91778807 50.96888733 61.45300293 C54.11802579 68.22718478 57.16952425 75.04126916 60.1875 81.875 C61.14306165 84.03523036 62.09879093 86.19538657 63.0546875 88.35546875 C63.5300293 89.42974121 64.00537109 90.50401367 64.49511719 91.61083984 C66.11601004 95.26126726 67.74739407 98.90684534 69.3828125 102.55078125 C69.66694504 103.18437561 69.95107758 103.81796997 70.24382019 104.47076416 C71.65448256 107.61471921 73.06945079 110.75661957 74.49243164 113.89501953 C76.76137397 118.91643239 79.01406929 123.92082021 80.98828125 129.06640625 C84.55632797 138.29005479 88.70137465 143.52788192 97 149 C98.89904455 150.2660297 100.79507935 151.53659033 102.6875 152.8125 C103.51636719 153.33457031 104.34523438 153.85664062 105.19921875 154.39453125 C105.79347656 154.92433594 106.38773438 155.45414063 107 156 C107 157.32 107 158.64 107 160 C93.14 160 79.28 160 65 160 C65.33 155.38 65.66 150.76 66 146 C64.89643073 141.61792253 63.76975213 138.08370771 62 134 C61.74067688 133.39907532 61.48135376 132.79815063 61.21417236 132.17901611 C59.40690252 128.0232556 57.52119792 123.90665439 55.60580444 119.79977417 C54.16330867 116.70646947 52.73510204 113.60663096 51.30592346 110.50715637 C50.57633155 108.92512505 49.84605669 107.34340851 49.11509705 105.76200867 C45.91918679 98.84400377 42.79210236 91.89700872 39.6875 84.9375 C34.63046483 73.62333211 29.54627065 62.32164286 24.44277954 51.02835083 C23.62113902 49.20978727 22.79997367 47.39100892 21.9793396 45.57199097 C19.33362193 39.70820387 16.67560175 33.8502145 14 28 C13.63013977 27.19036804 13.26027954 26.38073608 12.87921143 25.54656982 C11.80728143 23.2077652 10.72742147 20.87280946 9.64453125 18.5390625 C9.32767868 17.84701721 9.01082611 17.15497192 8.68437195 16.44195557 C6.60561176 11.9940469 4.26143667 8.13940896 1.03125 4.4453125 C0 3 0 3 0 0 Z " fill="#783D19" transform="translate(1111,1317)"/>
<path d="M0 0 C12.87 0 25.74 0 39 0 C38 4 38 4 36.125 6.25 C30.04671193 14.11601985 29.84957394 23.70874479 29.85473633 33.28979492 C29.85137772 34.19503403 29.8480191 35.10027313 29.84455872 36.03294373 C29.83509019 39.01546621 29.83310685 41.99793218 29.83203125 44.98046875 C29.82881296 47.07489545 29.82544847 49.16932193 29.82194519 51.26374817 C29.81596207 55.65752685 29.81410416 60.0512859 29.81469727 64.44506836 C29.81479818 70.01993898 29.80121585 75.59468021 29.78392506 81.16952038 C29.77268575 85.50153659 29.77078177 89.83352286 29.77130699 94.16555214 C29.77014206 96.21722161 29.76580603 98.26889225 29.75797462 100.3205471 C29.72253378 110.57491255 29.89440655 120.73389971 30.88549805 130.9465332 C30.96255132 131.74975352 31.03960459 132.55297384 31.11899281 133.38053417 C31.86398475 140.24176548 33.597983 146.52183293 36 153 C36.33 153.99 36.66 154.98 37 156 C37.66 156 38.32 156 39 156 C39 157.32 39 158.64 39 160 C26.13 160 13.26 160 0 160 C1 156 1 156 2.875 153.4375 C9.05010079 144.6127196 9.15020862 132.26448 9.17700195 121.92089844 C9.18357315 120.81442459 9.19014435 119.70795074 9.19691467 118.56794739 C9.21658626 114.91508917 9.22829581 111.26227192 9.23828125 107.609375 C9.24235678 106.35861427 9.2464323 105.10785355 9.25063133 103.81919098 C9.26932023 97.88182594 9.28389286 91.94447381 9.2922433 86.00708652 C9.30200892 79.17847915 9.32832206 72.35019651 9.36874419 65.52170348 C9.40265994 59.58649992 9.41439767 53.651375 9.41844749 47.71607208 C9.42330851 45.20117234 9.43490855 42.68627595 9.45348549 40.17144012 C9.47791022 36.64625887 9.47690541 33.12192018 9.4699707 29.59667969 C9.48278076 28.56672379 9.49559082 27.53676788 9.50878906 26.4756012 C9.45773154 19.32336486 8.41075794 12.03453273 3.63171864 6.38148117 C2.43526082 5.23934898 1.21931116 4.1177019 0 3 C0 2.01 0 1.02 0 0 Z " fill="#783D19" transform="translate(942,1317)"/>
<path d="M0 0 C11.55 0 23.1 0 35 0 C35.375 15.3125 35.375 15.3125 35.47802734 20.0715332 C35.15043308 33.60341852 35.15043308 33.60341852 40.125 45.4375 C42 48 42 48 42 60 C26.16 60 10.32 60 -6 60 C-6 48 -6 48 -3 44 C-0.2211487 35.23811173 -0.55243475 26.0459572 -0.375 16.9375 C-0.25125 11.348125 -0.1275 5.75875 0 0 Z " fill="#7A3F1B" transform="translate(721,647)"/>
<path d="M0 0 C6.93 0 13.86 0 21 0 C21.02578125 1.6190625 21.0515625 3.238125 21.078125 4.90625 C21.01169849 25.28840091 21.01169849 25.28840091 28 44 C28 44.99 28 45.98 28 47 C16.45 47 4.9 47 -7 47 C-6 43 -6 43 -4.5625 39.9375 C-0.73366561 31.1254905 -0.64085889 21.26710689 -0.375 11.8125 C-0.31699219 10.09836914 -0.31699219 10.09836914 -0.2578125 8.34960938 C-0.16465866 5.56663844 -0.08129671 2.78334255 0 0 Z " fill="#783D19" transform="translate(92,1430)"/>
<path d="M0 0 C10.89 0 21.78 0 33 0 C32.08908233 3.64367066 31.61294864 4.75110445 29.5 7.5625 C21.34472487 19.46214423 16.17004839 33.61090032 11 47 C4.07 47 -2.86 47 -10 47 C-9.113125 44.69 -8.22625 42.38 -7.3125 40 C0.31359397 20.54212639 0.31359397 20.54212639 0 0 Z " fill="#783D19" transform="translate(1250,1317)"/>
<path d="M0 0 C3.43916942 2.73729811 4.64868506 4.18245326 5.47265625 8.4453125 C5.74400371 13.10692272 5.54703869 15.29460801 2.625 19.0625 C-1.88726055 22.39297802 -5.4814105 22.68743675 -11 22 C-14.08954459 20.22515524 -15.53214578 18.76557963 -17.375 15.75 C-18.23879214 11.94931458 -18.18300794 8.72986579 -17 5 C-12.09492854 -1.06679891 -7.31760363 -2.02483603 0 0 Z " fill="#783D19" transform="translate(1496,1386)"/>
<path d="M0 0 C3.07469523 1.70251719 5.40613254 3.81226508 7 7 C7.39431433 11.73177192 7.45299639 14.09400722 5.3125 18.375 C2.80601659 21.22019739 1.68897534 22.24543686 -2 23 C-6.67834545 23.15214132 -9.27601352 22.60075474 -12.9375 19.5625 C-15.81220549 15.99089621 -16.39318165 13.74543213 -16.359375 9.10546875 C-15.72418186 5.38406547 -13.66020984 3.59687151 -11 1 C-7.51556578 -0.74221711 -3.80112955 -0.58675154 0 0 Z " fill="#783D19" transform="translate(473,1402)"/>
</svg>
